<?xml version="1.0" encoding="UTF-8" standalone="no"?>
<svg
   width="568"
   height="500.11734"
   viewBox="0 0 568 500.11734"
   fill="none"
   version="1.1"
   id="svg1"
   sodipodi:docname="bluesky.svg"
   inkscape:version="1.4.4 (dcaf3e7d9e, 2026-05-05)"
   xmlns:inkscape="http://www.inkscape.org/namespaces/inkscape"
   xmlns:sodipodi="http://sodipodi.sourceforge.net/DTD/sodipodi-0.dtd"
   xmlns="http://www.w3.org/2000/svg"
   xmlns:svg="http://www.w3.org/2000/svg">
  <defs
     id="defs1" />
  <sodipodi:namedview
     id="namedview1"
     pagecolor="#ffffff"
     bordercolor="#000000"
     borderopacity="0.25"
     inkscape:showpageshadow="2"
     inkscape:pageopacity="0.0"
     inkscape:pagecheckerboard="0"
     inkscape:deskcolor="#d1d1d1"
     inkscape:zoom="1.0967625"
     inkscape:cx="333.25357"
     inkscape:cy="298.15025"
     inkscape:window-width="1920"
     inkscape:window-height="1011"
     inkscape:window-x="0"
     inkscape:window-y="0"
     inkscape:window-maximized="1"
     inkscape:current-layer="svg1" />
  <path
     d="M 123.121,33.663713 C 188.241,82.552613 258.281,181.68101 284,234.87301 309.719,181.68101 379.759,82.552613 444.879,33.663713 491.866,-1.6118174 568,-28.906387 568,57.946413 c 0,17.3452 -9.945,145.712597 -15.778,166.554597 -20.275,72.453 -94.155,90.933 -159.875,79.748 114.875,19.551 144.097,84.311 80.986,149.071 -119.86,122.992 -172.272,-30.859 -185.702,-70.281 -2.462,-7.227 -3.614,-10.608 -3.631,-7.733 -0.017,-2.875 -1.169,0.506 -3.631,7.733 -13.43,39.422 -65.842,193.273 -185.7023,70.281 -63.1111,-64.76 -33.8889,-129.52 80.9863,-149.071 -65.72,11.185 -139.5995,-7.295 -159.8752,-79.748 C 9.94525,203.65901 0,75.291613 0,57.946413 c 0,-86.8528 76.1345,-59.5582304 123.121,-24.2827 z"
     fill="#000000"
     id="path1" />
</svg>
