<?xml version="1.0" encoding="UTF-8" standalone="no"?>
<svg
   height="16px"
   viewBox="0 0 16 16"
   width="16px"
   version="1.1"
   id="svg1"
   sodipodi:docname="theme.svg"
   inkscape:version="1.4.4 (dcaf3e7d9e, 2026-05-05)"
   xmlns:inkscape="http://www.inkscape.org/namespaces/inkscape"
   xmlns:sodipodi="http://sodipodi.sourceforge.net/DTD/sodipodi-0.dtd"
   xmlns="http://www.w3.org/2000/svg"
   xmlns:svg="http://www.w3.org/2000/svg">
  <defs
     id="defs1" />
  <sodipodi:namedview
     id="namedview1"
     pagecolor="#ffffff"
     bordercolor="#000000"
     borderopacity="0.25"
     inkscape:showpageshadow="2"
     inkscape:pageopacity="0.0"
     inkscape:pagecheckerboard="0"
     inkscape:deskcolor="#d1d1d1"
     inkscape:zoom="50"
     inkscape:cx="7.99"
     inkscape:cy="8"
     inkscape:window-width="1920"
     inkscape:window-height="1011"
     inkscape:window-x="0"
     inkscape:window-y="0"
     inkscape:window-maximized="1"
     inkscape:current-layer="svg1" />
  <path
     d="m 0.917969 8.003906 c 0 3.910156 3.167969 7.078125 7.078125 7.078125 c 3.597656 -0.007812 6.621094 -2.710937 7.023437 -6.285156 c 0.042969 -0.378906 -0.136719 -0.75 -0.457031 -0.957031 c -0.324219 -0.203125 -0.738281 -0.207032 -1.0625 -0.003906 c -0.609375 0.375 -1.316406 0.578124 -2.03125 0.578124 c -2.15625 0 -3.882812 -1.726562 -3.882812 -3.882812 c 0 -0.714844 0.203124 -1.421875 0.578124 -2.03125 c 0.203126 -0.324219 0.199219 -0.738281 -0.003906 -1.0625 c -0.207031 -0.320312 -0.578125 -0.5 -0.957031 -0.457031 c -3.574219 0.402343 -6.277344 3.425781 -6.285156 7.023437 z m 4.667969 -3.472656 c 0 3.25 2.632812 5.882812 5.886718 5.882812 c 1.085938 0 2.152344 -0.304687 3.078125 -0.878906 l -1.519531 -0.960937 c -0.289062 2.570312 -2.449219 4.503906 -5.035156 4.507812 c -2.816406 0 -5.078125 -2.261719 -5.078125 -5.078125 c 0.003906 -2.585937 1.9375 -4.746094 4.507812 -5.035156 l -0.960937 -1.519531 c -0.574219 0.925781 -0.878906 1.992187 -0.878906 3.082031 z m 0 0"
     fill="#222222"
     id="path1"
     style="fill:#000000" />
</svg>
